<?xml version="1.0" standalone="no"?>
<!DOCTYPE svg PUBLIC "-//W3C//DTD SVG 20010904//EN"
 "http://www.w3.org/TR/2001/REC-SVG-20010904/DTD/svg10.dtd">
<svg version="1.0" xmlns="http://www.w3.org/2000/svg"
 width="700.000000pt" height="700.000000pt" viewBox="0 0 700.000000 700.000000"
 preserveAspectRatio="xMidYMid meet">
<metadata>
Created by potrace 1.14, written by Peter Selinger 2001-2017
</metadata>
<g transform="translate(0.000000,700.000000) scale(0.100000,-0.100000)"
fill="#000000" stroke="none">
<path d="M4850 6378 c-45 -10 -367 -101 -1000 -283 -709 -204 -1492 -429
-1655 -475 -632 -179 -989 -285 -1044 -311 -291 -135 -481 -456 -457 -772 7
-97 2 -76 99 -412 l80 -280 2 -1280 c2 -704 5 -1291 9 -1305 3 -14 11 -47 17
-75 13 -57 75 -195 110 -247 108 -158 273 -275 465 -330 l79 -22 1920 0 c1056
0 1940 3 1965 7 221 34 416 155 541 337 59 85 103 188 125 286 16 72 17 190
19 1374 1 998 -1 1304 -11 1333 -25 79 -88 139 -162 154 -15 3 -755 6 -1644 6
-890 0 -1618 3 -1618 6 0 5 373 115 460 136 8 2 236 67 505 145 270 78 519
150 555 159 232 65 1580 453 1603 462 71 29 127 125 122 210 -3 43 -147 561
-186 669 -90 246 -316 444 -574 503 -73 16 -263 20 -325 5z m323 -469 c49 -26
107 -82 135 -132 17 -28 51 -126 77 -217 26 -91 51 -176 56 -189 5 -13 8 -26
5 -28 -5 -6 -724 -213 -737 -213 -6 0 97 190 378 693 30 53 56 97 59 97 3 0
15 -5 27 -11z m-576 -66 c-18 -32 -100 -179 -127 -228 -18 -33 -44 -80 -58
-105 -13 -25 -40 -74 -60 -110 -20 -36 -83 -150 -142 -255 l-106 -190 -164
-47 c-91 -26 -181 -52 -200 -58 -19 -6 -114 -33 -210 -61 -96 -28 -183 -53
-192 -56 -10 -3 -18 -2 -18 2 0 7 478 874 489 887 5 6 388 121 446 134 11 2
88 24 170 48 154 46 179 51 172 39z m-1437 -487 c-32 -58 -72 -129 -88 -158
-55 -99 -188 -339 -215 -388 -11 -19 -38 -69 -60 -110 -78 -145 -79 -145 -149
-164 -35 -9 -209 -58 -388 -110 -179 -52 -327 -92 -328 -91 -2 2 17 41 43 87
27 46 55 97 64 114 9 16 99 179 201 362 l184 332 70 21 c38 11 99 29 135 39
57 15 583 167 588 169 0 1 -25 -46 -57 -103z m-1362 -353 c-17 -32 -42 -75
-55 -95 -13 -21 -23 -39 -23 -42 0 -2 -41 -77 -91 -167 -50 -90 -104 -186
-119 -214 -115 -209 -173 -311 -181 -321 -9 -11 -77 -29 -84 -22 -2 2 -28 88
-59 192 -48 165 -54 199 -53 265 4 124 70 237 175 298 34 20 260 92 432 138 8
2 29 8 45 14 17 5 33 10 37 10 4 1 -7 -25 -24 -56z m3886 -1373 c2 -8 3 -535
2 -1170 -2 -1105 -3 -1157 -21 -1200 -48 -116 -131 -192 -245 -224 -50 -15
-246 -16 -1945 -14 l-1890 3 -60 29 c-104 51 -180 148 -204 258 -8 38 -14
2315 -6 2328 2 3 985 6 2184 6 1949 0 2181 -2 2185 -16z"/>
</g>
</svg>
