<?xml version="1.0" standalone="no"?>
<!DOCTYPE svg PUBLIC "-//W3C//DTD SVG 20010904//EN"
 "http://www.w3.org/TR/2001/REC-SVG-20010904/DTD/svg10.dtd">
<svg version="1.0" xmlns="http://www.w3.org/2000/svg"
 width="700.000000pt" height="700.000000pt" viewBox="0 0 700.000000 700.000000"
 preserveAspectRatio="xMidYMid meet">
<metadata>
Created by potrace 1.14, written by Peter Selinger 2001-2017
</metadata>
<g transform="translate(0.000000,700.000000) scale(0.100000,-0.100000)"
fill="#000000" stroke="none">
<path d="M1679 5756 c-2 -2 -25 -6 -50 -9 -183 -22 -381 -135 -501 -287 -81
-102 -147 -264 -164 -400 -17 -138 -8 -899 11 -930 3 -4 6 -23 9 -42 7 -60 45
-171 81 -237 l34 -64 -29 -66 c-81 -187 -120 -410 -120 -703 l-1 -137 -47 -17
c-106 -39 -298 -117 -307 -125 -5 -5 -14 -9 -21 -9 -12 0 -112 -58 -140 -81
-37 -31 -67 -100 -67 -157 0 -95 46 -166 133 -204 64 -28 129 -21 216 24 79
41 244 111 249 106 2 -2 7 -19 10 -38 13 -79 66 -250 91 -299 8 -14 14 -30 14
-36 0 -5 -42 -37 -93 -70 -69 -45 -99 -72 -120 -107 -79 -129 7 -305 159 -323
69 -9 102 3 225 81 l90 57 37 -35 c20 -19 51 -47 67 -61 17 -14 40 -35 53 -45
13 -11 49 -38 80 -59 31 -21 59 -40 62 -43 11 -12 154 -93 238 -134 309 -154
687 -264 1102 -321 25 -3 56 -8 70 -10 181 -27 709 -27 890 0 14 2 48 6 75 9
28 4 61 8 75 11 14 3 41 7 60 10 327 50 684 159 950 288 201 98 361 205 507
341 l52 48 78 -48 c43 -26 80 -50 83 -54 11 -13 68 -32 108 -37 90 -10 181 45
218 132 21 51 24 89 8 142 -18 65 -50 101 -143 161 -47 30 -88 56 -90 58 -2 2
12 45 32 96 35 91 65 194 73 252 2 16 5 31 7 33 7 6 152 -54 239 -99 89 -45
143 -56 206 -39 129 35 196 199 129 313 -31 54 -46 67 -128 111 -151 83 -599
246 -774 282 -11 3 -40 9 -65 15 -81 17 -194 29 -235 23 -181 -25 -257 -238
-132 -366 40 -41 95 -67 146 -67 48 -1 170 -25 181 -36 16 -16 -48 -285 -74
-312 -2 -1 -22 5 -46 13 -62 22 -134 35 -213 39 -73 4 -121 -11 -170 -55 -73
-63 -95 -175 -52 -260 20 -38 75 -88 112 -101 18 -7 33 -15 33 -20 0 -12 -133
-94 -255 -157 -63 -33 -115 -58 -115 -55 0 2 -17 -4 -38 -15 -112 -57 -450
-152 -677 -190 -33 -6 -73 -13 -90 -15 -16 -3 -55 -8 -85 -12 -30 -3 -63 -8
-74 -10 -31 -6 -295 -18 -376 -17 -434 3 -924 99 -1280 251 -91 39 -206 96
-255 127 -73 45 -135 89 -135 95 0 3 16 12 36 19 76 28 134 120 129 208 -8
135 -105 214 -254 207 -57 -3 -183 -29 -231 -48 -11 -5 -21 9 -38 51 -24 64
-48 155 -56 219 -5 42 -5 42 32 50 20 4 44 9 52 11 8 2 44 7 80 10 80 7 140
34 177 80 94 117 57 275 -80 338 -40 19 -60 22 -115 18 -37 -3 -87 -6 -112 -6
l-45 -2 1 40 c1 66 15 248 19 255 3 4 7 22 9 41 29 201 140 383 324 532 87 70
116 122 115 203 -1 121 -94 213 -216 214 -61 0 -100 -16 -169 -73 l-56 -46 -7
27 c-4 15 -9 190 -12 389 -4 389 2 454 48 544 58 115 200 188 343 177 34 -3
71 -10 82 -15 10 -6 53 -26 94 -44 41 -19 102 -49 135 -68 33 -18 78 -43 100
-55 22 -12 90 -51 150 -86 139 -80 295 -154 360 -170 45 -10 238 -15 254 -6 3
2 42 7 85 11 43 4 88 9 100 12 50 13 613 12 726 -2 196 -24 213 -25 295 -26
83 0 92 1 162 20 47 13 326 152 353 176 9 8 19 15 22 15 3 0 50 25 104 56 218
124 356 185 422 186 54 1 149 -21 192 -43 52 -27 115 -89 139 -138 46 -90 51
-141 47 -536 -1 -203 -5 -378 -8 -387 -8 -32 -17 -31 -65 8 -68 55 -89 65
-149 71 -128 13 -232 -76 -238 -204 -4 -79 28 -139 107 -202 34 -27 88 -76
119 -109 67 -70 104 -94 175 -115 193 -57 375 75 446 323 44 154 50 222 52
607 2 407 -5 495 -49 628 -78 231 -226 385 -460 480 -128 51 -339 67 -464 34
-116 -30 -357 -144 -542 -257 -19 -12 -44 -26 -55 -32 -11 -5 -47 -25 -80 -44
-186 -108 -211 -112 -440 -80 -193 27 -776 26 -918 -2 -23 -4 -149 -16 -202
-19 -39 -2 -115 35 -367 178 -276 157 -435 232 -563 264 -25 6 -220 14 -226 9z"/>
<path d="M2525 3463 c-99 -40 -177 -122 -217 -226 -28 -72 -29 -80 -34 -183
-8 -196 79 -365 223 -434 34 -17 69 -24 124 -26 65 -3 84 1 135 25 91 43 157
115 197 218 23 59 28 87 32 179 9 192 -81 367 -222 434 -62 30 -180 36 -238
13z"/>
<path d="M4280 3464 c-109 -40 -185 -122 -231 -249 -32 -89 -32 -264 -1 -357
37 -108 110 -195 202 -240 62 -31 194 -31 260 0 81 38 154 121 193 220 26 65
32 107 31 212 -1 183 -85 336 -220 400 -64 30 -171 37 -234 14z"/>
<path d="M3440 2639 c-137 -12 -219 -43 -298 -114 -116 -104 -117 -272 -4
-382 151 -147 524 -159 707 -23 74 55 110 125 109 215 -1 106 -47 181 -150
241 -83 49 -229 74 -364 63z"/>
</g>
</svg>
