<?xml version="1.0" standalone="no"?>
<!DOCTYPE svg PUBLIC "-//W3C//DTD SVG 20010904//EN"
 "http://www.w3.org/TR/2001/REC-SVG-20010904/DTD/svg10.dtd">
<svg version="1.0" xmlns="http://www.w3.org/2000/svg"
 width="700.000000pt" height="700.000000pt" viewBox="0 0 700.000000 700.000000"
 preserveAspectRatio="xMidYMid meet">
<metadata>
Created by potrace 1.14, written by Peter Selinger 2001-2017
</metadata>
<g transform="translate(0.000000,700.000000) scale(0.100000,-0.100000)"
fill="#000000" stroke="none">
<path d="M1016 6489 c-501 -122 -691 -700 -351 -1066 95 -103 246 -191 360
-209 21 -3 47 -8 59 -10 11 -3 50 -5 85 -5 214 2 392 80 527 233 110 124 164
274 159 442 -6 176 -65 308 -194 436 -84 84 -193 145 -311 176 -97 25 -238 26
-334 3z m306 -267 c138 -49 240 -162 268 -297 34 -163 -54 -336 -212 -416 -73
-37 -106 -44 -203 -43 -99 0 -124 6 -200 43 -251 124 -296 449 -89 631 46 40
145 88 205 99 67 12 169 5 231 -17z"/>
<path d="M2253 6491 c-68 -43 -65 4 -65 -897 0 -448 -3 -815 -7 -815 -3 -1
-361 -3 -796 -4 -724 -1 -793 -3 -822 -18 -92 -49 -90 -179 3 -227 25 -13 140
-15 819 -17 435 0 793 -2 796 -2 4 -1 7 -464 7 -1031 l0 -1030 -795 0 c-868 0
-834 2 -877 -57 -27 -37 -27 -110 -1 -145 44 -60 9 -58 878 -58 l795 0 0 -798
c-1 -722 1 -801 16 -830 34 -65 101 -86 170 -53 77 38 74 -6 74 876 1 429 1
786 2 793 0 9 213 12 1030 12 l1030 0 0 -795 c0 -886 -3 -843 69 -883 66 -37
150 -11 177 55 11 26 14 179 14 828 l0 795 816 0 c892 0 861 -2 896 58 26 44
28 87 6 131 -37 75 13 71 -902 71 l-816 0 0 1030 c0 974 1 1030 18 1031 9 1
373 2 807 3 883 2 835 -2 870 72 26 55 15 111 -29 151 -20 18 -46 33 -58 34
-13 1 -378 2 -813 3 l-790 1 -5 825 c-5 778 -6 827 -23 854 -19 29 -71 56
-108 56 -33 0 -86 -29 -106 -58 -17 -25 -18 -77 -23 -852 l-5 -825 -1027 0
c-566 -1 -1028 2 -1029 5 0 3 0 367 -1 810 0 873 1 853 -55 894 -38 28 -101
31 -140 7z m2257 -3008 l0 -1033 -1030 0 -1030 0 -1 23 c0 29 0 1973 0 2012
l1 30 1030 0 1030 0 0 -1032z"/>
<path d="M3033 4009 c-32 -21 -63 -73 -63 -106 0 -48 28 -85 183 -240 l161
-162 -160 -163 c-129 -131 -162 -170 -167 -198 -12 -65 17 -120 77 -145 73
-31 94 -19 269 154 87 86 160 158 163 160 2 3 80 -70 172 -161 136 -136 174
-168 203 -173 39 -7 93 10 122 39 22 23 39 89 31 123 -4 18 -67 89 -172 195
l-166 168 156 157 c85 87 160 167 165 178 9 18 10 37 5 97 -1 9 -15 30 -32 46
-34 35 -92 48 -135 32 -17 -6 -101 -82 -187 -168 l-158 -156 -167 166 c-139
138 -174 167 -203 172 -51 7 -66 5 -97 -15z"/>
<path d="M3429 6506 c-2 -2 -24 -7 -49 -10 -89 -12 -171 -44 -260 -101 -326
-210 -400 -635 -163 -936 42 -54 160 -159 178 -159 4 0 19 -8 33 -19 35 -24
131 -56 209 -70 335 -61 664 128 772 442 77 223 17 477 -153 649 -94 96 -226
167 -356 193 -41 8 -205 17 -211 11z m203 -280 c211 -63 334 -276 275 -476
-60 -204 -288 -330 -506 -279 -189 43 -326 206 -323 385 2 180 145 345 332
383 57 12 161 6 222 -13z"/>
<path d="M5345 6370 c-61 -25 -91 -110 -62 -172 9 -19 49 -66 89 -105 40 -39
111 -110 157 -156 l84 -85 -161 -162 c-166 -166 -180 -188 -168 -249 7 -32 32
-68 60 -86 33 -22 97 -21 131 1 15 10 91 82 169 161 78 79 147 143 152 143 5
0 77 -68 159 -151 158 -158 188 -181 240 -181 75 0 142 77 129 147 -7 41 -26
64 -193 229 l-150 150 159 159 c164 163 185 194 174 254 -16 88 -130 133 -200
81 -17 -13 -94 -88 -173 -167 l-143 -144 -161 161 c-89 88 -172 165 -184 171
-25 13 -79 13 -108 1z"/>
<path d="M5676 4143 c-456 -79 -700 -567 -477 -957 149 -260 442 -385 761
-323 108 21 245 99 335 192 334 342 196 893 -264 1059 -109 39 -237 50 -355
29z m237 -264 c116 -31 222 -119 274 -227 24 -50 28 -70 28 -152 0 -88 -2
-100 -34 -162 -128 -255 -486 -310 -691 -107 -51 50 -85 110 -103 180 -74 288
219 550 526 468z"/>
<path d="M3488 1805 c-1 -1 -32 -5 -68 -8 -220 -20 -427 -160 -529 -357 -178
-346 -17 -754 354 -898 184 -71 366 -67 542 13 121 55 191 112 270 217 201
265 153 651 -108 868 -103 86 -242 145 -366 156 -37 3 -73 7 -80 9 -6 2 -13 2
-15 0z m127 -280 c138 -36 243 -132 290 -264 15 -42 21 -146 11 -190 -9 -42
-63 -145 -93 -178 -93 -104 -268 -160 -409 -131 -195 40 -336 201 -336 384 -1
261 266 449 537 379z"/>
<path d="M745 1673 c-75 -19 -120 -118 -84 -184 6 -12 83 -93 171 -181 l160
-160 -160 -162 c-147 -147 -167 -173 -173 -226 -10 -77 83 -147 167 -126 15 4
92 72 186 164 88 86 163 156 169 155 5 -2 81 -75 168 -162 131 -131 167 -161
196 -167 52 -9 94 6 126 46 32 41 41 83 24 124 -7 15 -85 101 -174 190 l-161
162 150 149 c83 83 159 166 169 185 23 45 18 94 -14 135 -30 41 -66 52 -142
46 -9 0 -91 -75 -183 -166 l-165 -165 -160 161 c-88 88 -167 164 -176 169 -22
12 -69 18 -94 13z"/>
</g>
</svg>
